<?xml version="1.0" standalone="no"?><!DOCTYPE svg PUBLIC "-//W3C//DTD SVG 1.1//EN" "http://www.w3.org/Graphics/SVG/1.1/DTD/svg11.dtd"><svg t="1624262126054" class="icon" viewBox="0 0 1024 1024" version="1.1" xmlns="http://www.w3.org/2000/svg" p-id="3195" xmlns:xlink="http://www.w3.org/1999/xlink" width="128" height="128"><defs><style type="text/css"></style></defs><path d="M970.299403 1023.988364h-214.825664a53.712234 53.712234 0 1 1 0-107.401196h85.152974L573.648054 649.585237l0.046544-0.046545A53.432967 53.432967 0 0 1 558.544397 612.256631 53.712234 53.712234 0 0 1 612.233359 558.544397c14.521852 0 27.624099 5.81805 37.282061 15.150201l0.069817-0.046545L916.587169 840.603441v-85.176246a53.712234 53.712234 0 0 1 107.401195 0v214.848935A53.688962 53.688962 0 0 1 970.299403 1023.988364z m0-701.749869a53.712234 53.712234 0 0 1-53.712234-53.712234V183.396559L649.585237 450.351947l-0.069817-0.046545a53.45624 53.45624 0 0 1-37.282061 15.150201A53.712234 53.712234 0 0 1 558.544397 411.743369c0-14.49858 5.81805-27.600827 15.150201-37.282061l-0.046544-0.046545L840.603441 107.412832h-85.176246a53.712234 53.712234 0 1 1 0-107.401196h214.848935A53.712234 53.712234 0 0 1 1023.988364 53.72387v214.802391a53.712234 53.712234 0 0 1-53.688961 53.712234zM450.328675 649.585237L183.396559 916.587168h85.176246a53.712234 53.712234 0 1 1 0 107.401196H53.700598A53.712234 53.712234 0 0 1 0.011636 970.299402v-214.825663a53.712234 53.712234 0 0 1 107.401196 0v85.152974l267.001932-266.97866 0.046544 0.046545A53.479512 53.479512 0 0 1 411.74337 558.544397 53.712234 53.712234 0 0 1 465.455604 612.256631c0 14.49858-5.81805 27.624099-15.150202 37.282061l0.046545 0.046545zM411.74337 465.455603c-14.49858 0-27.600827-5.81805-37.282062-15.150201l-0.046544 0.046545L107.412832 183.396559v85.176246a53.712234 53.712234 0 1 1-107.401196 0V53.700598A53.712234 53.712234 0 0 1 53.72387 0.011636h214.802391a53.712234 53.712234 0 0 1 0 107.401196h-85.176246l267.001932 267.001931-0.046545 0.046545c9.332152 9.681235 15.150201 22.783482 15.150202 37.282061A53.712234 53.712234 0 0 1 411.74337 465.455603z" p-id="3196" fill="#fff"></path></svg>