<?xml version="1.0" standalone="no"?><!DOCTYPE svg PUBLIC "-//W3C//DTD SVG 1.1//EN" "http://www.w3.org/Graphics/SVG/1.1/DTD/svg11.dtd"><svg t="1624262029812" class="icon" viewBox="0 0 1024 1024" version="1.1" xmlns="http://www.w3.org/2000/svg" p-id="2394" xmlns:xlink="http://www.w3.org/1999/xlink" width="128" height="128"><defs><style type="text/css"></style></defs><path d="M606.829362 950.306564v-294.57736a49.096227 49.096227 0 0 1 49.096227-48.80165h294.57736a49.096227 49.096227 0 0 1 49.096226 48.80165 49.096227 49.096227 0 0 1-49.096226 49.096226h-176.059069l193.782806 194.077384a49.096227 49.096227 0 0 1 0 69.471161 49.096227 49.096227 0 0 1-69.225679 0l-194.077384-194.077384v176.108165a49.096227 49.096227 0 0 1-49.096227 49.096227 49.096227 49.096227 0 0 1-48.998034-49.194419z m-287.5566 0v-176.108165l-193.782807 194.077384a49.096227 49.096227 0 0 1-69.422064 0 49.096227 49.096227 0 0 1 0-69.471161l193.782807-194.077384H73.693436a49.096227 49.096227 0 0 1-49.096226-49.096227 49.096227 49.096227 0 0 1 49.096226-48.801649h297.081268a49.096227 49.096227 0 0 1 46.788704 48.801649v294.57736a49.096227 49.096227 0 0 1-49.096227 49.096227 49.096227 49.096227 0 0 1-49.243515-48.998034zM655.925589 417.170638a49.096227 49.096227 0 0 1-49.096227-49.096227v-294.57736a49.096227 49.096227 0 0 1 49.096227-49.096226 49.096227 49.096227 0 0 1 49.096226 49.096226v175.813588l194.077384-193.782807a49.096227 49.096227 0 0 1 69.22568 0 49.096227 49.096227 0 0 1 0 69.471161l-193.782807 193.782807h176.059069a49.096227 49.096227 0 0 1 49.096227 49.096227 49.096227 49.096227 0 0 1-49.096227 49.096226z m-582.232153 0a49.096227 49.096227 0 0 1-49.096226-49.096227 49.096227 49.096227 0 0 1 49.096226-49.096226h176.157262L56.067891 125.195378a49.096227 49.096227 0 0 1 0-69.471161 49.096227 49.096227 0 0 1 69.422064 0l193.782807 194.077384V73.693436a49.096227 49.096227 0 0 1 49.096227-49.096226 49.096227 49.096227 0 0 1 49.096227 49.096226v294.57736a49.096227 49.096227 0 0 1-49.096227 49.096227z" p-id="2395" fill="#fff"></path></svg>